<svg width="165" height="36" fill="none" xmlns="http://www.w3.org/2000/svg"><path fill="#FFF100" d="M50.782 31.593v-2.42c0-.45-.757-.88-2.116-1.266l.033-3.014c0-4.641-1.44-9.17-4.126-12.975a22.825 22.825 0 0 0-10.886-8.29l-.097-.604a1.722 1.722 0 0 0-.408-.872 1.747 1.747 0 0 0-.815-.521 23.147 23.147 0 0 0-12.925 0c-.317.093-.6.273-.818.52-.217.246-.36.548-.41.872l-.093.563A22.83 22.83 0 0 0 7.159 11.87 22.498 22.498 0 0 0 3 24.892v3.027c-1.34.385-2.087.81-2.087 1.256v2.421a.59.59 0 0 0 .087.408 5.852 5.852 0 0 1 2.247-1.015c2.072-.5 4.179-.85 6.303-1.046A4.25 4.25 0 0 1 12.857 31a8.95 8.95 0 0 0 6.009 2.313H32.83a8.943 8.943 0 0 0 6.008-2.314 4.253 4.253 0 0 1 3.308-1.069c2.123.195 4.23.543 6.302 1.042.77.146 1.498.462 2.13.924.035.035.078.066.108.1a.6.6 0 0 0 .096-.403Z"/><path d="M12.89 26.498a53.052 53.052 0 0 1-.03-1.673c.007-8.416 1.992-15.964 5.262-21.235A22.83 22.83 0 0 0 7.16 11.872 22.498 22.498 0 0 0 3 24.892v3.027a55.919 55.919 0 0 1 9.89-1.42Z" fill="url(#a)"/><path d="M25.846 7.818 20.5 16.841l5.346 3.288V7.818Z" fill="#0A0A0A"/><path d="M25.848 7.822v12.305l5.345-3.284-5.345-9.021ZM25.848 21.915v4.29c.1-.142 5.345-7.58 5.345-7.583l-5.345 3.293Z" fill="#4B4D4D"/><path d="m25.848 21.916-5.346-3.288 5.346 7.58v-4.294.002Z" fill="#0A0A0A"/></svg>